#!OML:ASF F:\VICON\USERDATA\INSTALL\Justin_Nancy\Justin_Nancy.ASF
:FULLY-SPECIFIED
:DEGREES
16
root 11.8908 17.3917 -23.9943 2.1497 -2.2185 -5.07449
lowerback 5.08414 1.4819 4.29156
upperback 0.142455 2.30931 3.08166
thorax -2.66377 1.11352 0.60348
lowerneck -14.2532 -4.4981 -9.12995
upperneck 18.618 -5.38748 6.10892
head 8.57058 -2.57859 2.93807
rclavicle -6.21202e-015 -1.31198e-014
rhumerus -26.0109 -9.49287 -79.8462
rradius 34.8326
rwrist 3.85547
rhand -13.7897 11.3338
rfingers 7.12502
rthumb 12.3319 -18.2825
lclavicle -6.21202e-015 -1.31198e-014
lhumerus -34.8261 16.3507 83.4632
lradius 20.9968
lwrist -15.4109
lhand -11.0724 29.642
lfingers 7.12502
lthumb 14.9508 59.0824
rfemur 13.0616 5.80277 30.1735
rtibia 17.3578
rfoot -10.4299 -4.76066
rtoes -13.1378
lfemur -28.5756 -3.79473 -13.97
ltibia 22.4105
lfoot -7.71363 1.52128
ltoes -6.58607
17
root 11.9329 17.4117 -23.81 2.1815 -2.57942 -4.75562
lowerback 4.96878 1.5499 4.15024
upperback 0.0995991 2.38277 2.95767
thorax -2.64204 1.15115 0.55195
lowerneck -14.8111 -4.40934 -9.25156
upperneck 19.1458 -5.22817 6.21014
head 8.84428 -2.495 3.01021
rclavicle -5.11871e-015 -5.96354e-015
rhumerus -26.2754 -9.54552 -79.8477
rradius 34.5471
rwrist 3.71299
rhand -13.2214 9.54763
rfingers 7.12502
rthumb 12.8797 -20.0349
lclavicle -5.11871e-015 -5.96354e-015
lhumerus -34.979 17.1165 83.0025
lradius 20.7208
lwrist -15.8195
lhand -11.349 28.0279
lfingers 7.12502
lthumb 14.6842 57.4879
rfemur 12.8147 5.79429 29.5046
rtibia 18.7708
rfoot -9.96387 -4.17316
rtoes -14.5221
lfemur -28.1892 -3.72506 -14.531
ltibia 22.5067
lfoot -5.87228 1.06233
ltoes -6.73015
18
root 11.9669 17.4353 -23.6366 2.20765 -2.73149 -4.24939
lowerback 4.89999 1.53341 3.68192
upperback -0.0487482 2.3335 2.81506
thorax -2.76978 1.12924 0.668913
lowerneck -14.882 -4.3016 -9.18525
upperneck 19.5592 -5.08003 6.0959
head 8.98117 -2.43378 2.98202
rclavicle 3.39922e-014 -2.26615e-014
rhumerus -26.5596 -9.72237 -79.82
rradius 33.9699
rwrist 3.62522
rhand -12.7532 7.29902
rfingers 7.12502
rthumb 13.331 -22.2546
lclavicle 3.39922e-014 -2.26615e-014
lhumerus -35.4016 17.3153 82.7772
lradius 20.8652
lwrist -15.6266
lhand -11.839 28.464
lfingers 7.12502
lthumb 14.2121 57.9577
rfemur 12.351 5.74419 28.7138
rtibia 20.393
rfoot -9.22683 -3.75699
rtoes -15.3834
lfemur -27.7969 -3.58249 -15.3372
ltibia 22.512
lfoot -4.31301 0.908083
ltoes -6.35143
19
root 11.9965 17.4581 -23.4657 2.21845 -2.75284 -3.63547
lowerback 4.72979 1.47683 3.0558
upperback -0.0517639 2.20995 2.66375
thorax -2.69596 1.07653 0.875392
lowerneck -15.2147 -4.3003 -9.23212
upperneck 19.9116 -5.06156 6.14389
head 9.16465 -2.42002 3.00844
rclavicle 1.28713e-014 -2.50469e-014
rhumerus -26.4525 -10.0927 -79.802
rradius 33.3211
rwrist 4.24162
rhand -12.5848 6.96089
rfingers 7.12502
rthumb 13.4934 -22.582
lclavicle 1.28713e-014 -2.50469e-014
lhumerus -35.5863 17.5389 82.6701
lradius 21.2729
lwrist -15.5943
lhand -11.5122 29.6361
lfingers 7.12502
lthumb 14.5271 59.1075
rfemur 11.7132 5.51316 27.8007
rtibia 22.2976
rfoot -8.3681 -3.31918
rtoes -16.2669
lfemur -27.2562 -3.22933 -16.3075
ltibia 22.3721
lfoot -3.21714 0.621866
ltoes -4.6604
20
root 12.0204 17.4801 -23.2943 2.15157 -2.5069 -3.20554
lowerback 4.70578 1.33233 2.59621
upperback 0.131873 1.98122 2.55968
thorax -2.50587 0.970528 1.04335
lowerneck -16.5029 -4.37216 -9.30583
upperneck 20.5887 -5.07333 6.24392
head 9.64486 -2.40156 3.04697
rclavicle 7.50412e-015 1.90833e-014
rhumerus -26.001 -10.6846 -79.8596
rradius 32.7519
rwrist 5.24373
rhand -13.7109 11.4491
rfingers 7.12502
rthumb 12.4078 -18.1627
lclavicle 7.50412e-015 1.90833e-014
lhumerus -35.2028 17.9623 82.5875
lradius 21.3208
lwrist -15.5537
lhand -11.4046 29.329
lfingers 7.12502
lthumb 14.6307 58.7929
rfemur 10.9974 5.20195 27.1847
rtibia 24.5277
rfoot -7.38944 -3.0119
rtoes -16.1098
lfemur -26.4673 -2.57648 -17.1751
ltibia 22.1362
lfoot -2.45548 -0.00790746
ltoes -3.84819
21
root 12.0437 17.4979 -23.1266 1.89934 -2.19394 -2.66943
lowerback 4.99885 1.2444 2.04853
upperback -0.00197208 1.84528 2.36613
thorax -2.81877 0.906156 1.15123
lowerneck -16.4605 -4.37144 -9.31483
upperneck 20.9595 -5.11889 6.35953
head 9.77486 -2.41371 3.08823
rclavicle -1.93815e-014 1.78906e-014
rhumerus -26.4793 -11.5091 -79.7333
rradius 32.2586
rwrist 6.07098
rhand -13.0079 9.63905
rfingers 7.12502
rthumb 13.0856 -19.9304
lclavicle -1.93815e-014 1.78906e-014
lhumerus -35.5499 17.9088 82.3301
lradius 21.3098
lwrist -14.8763
lhand -12.1276 28.4542
lfingers 7.12502
lthumb 13.934 57.9673
rfemur 10.3387 4.84966 26.4712
rtibia 26.9569
rfoot -6.2676 -2.65368
rtoes -16.0664
lfemur -25.5602 -1.87497 -18.1716
ltibia 21.9267
lfoot -1.89169 -0.344505
ltoes -3.86279
22
root 12.0728 17.5128 -22.9631 1.74956 -2.05409 -2.04009
lowerback 5.04328 1.24911 1.41046
upperback -0.275371 1.81777 2.15361
thorax -3.13817 0.898966 1.2875
lowerneck -15.4896 -4.26271 -9.18698
upperneck 20.9517 -5.07961 6.30834
head 9.58178 -2.40871 3.06514
rclavicle 2.45251e-014 1.43125e-014
rhumerus -27.3717 -12.3576 -79.4328
rradius 31.8318
rwrist 6.73258
rhand -13.053 10.3223
rfingers 7.12502
rthumb 13.0421 -19.25
lclavicle 2.45251e-014 1.43125e-014
lhumerus -36.227 17.4692 82.1691
lradius 21.4547
lwrist -13.9472
lhand -12.4847 28.6644
lfingers 7.12502
lthumb 13.5898 58.2008
rfemur 9.44097 4.46522 25.4987
rtibia 29.4671
rfoot -4.79853 -2.01446
rtoes -15.9164
lfemur -24.8928 -1.23241 -19.209
ltibia 21.8459
lfoot -1.85051 -0.918448
ltoes -4.36077
23
root 12.1028 17.5285 -22.8011 1.72852 -1.81275 -1.61374
lowerback 4.77113 1.17798 1.04827
upperback -0.220115 1.68826 1.98779
thorax -2.93161 0.839647 1.33562
lowerneck -15.4066 -4.25292 -9.03341
upperneck 20.9976 -5.09446 6.2217
head 9.57677 -2.41454 3.00852
rclavicle 1.76918e-014 1.19271e-015
rhumerus -27.5116 -13.2968 -79.3241
rradius 31.269
rwrist 7.16971
rhand -13.2948 10.7997
rfingers 7.12502
rthumb 12.8091 -18.7873
lclavicle 1.76918e-014 1.19271e-015
lhumerus -36.2669 17.4401 82.0433
lradius 21.6022
lwrist -13.4658
lhand -12.2242 29
lfingers 7.12502
lthumb 13.8409 58.5195
rfemur 8.30637 3.92108 24.6818
rtibia 32.0066
rfoot -3.06099 -1.32837
rtoes -15.0929
lfemur -24.4476 -0.694547 -19.9891
ltibia 21.9174
lfoot -2.39199 -2.56139
ltoes -4.25947
24
root 12.1296 17.5407 -22.6451 1.7172 -1.51347 -1.45093
lowerback 4.83057 0.994178 0.893762
upperback -0.245513 1.43596 1.97282
thorax -2.99034 0.716223 1.42396
lowerneck -15.6647 -4.25825 -9.08188
upperneck 21.2815 -5.06028 6.14705
head 9.72174 -2.40789 2.99532
rclavicle -1.2598e-014 -2.94201e-014
rhumerus -27.5596 -13.8355 -79.2261
rradius 30.482
rwrist 7.26576
rhand -13.2666 10.4393
rfingers 7.12502
rthumb 12.8362 -19.1461
lclavicle -1.2598e-014 -2.94201e-014
lhumerus -36.2269 17.732 81.912
lradius 21.5456
lwrist -13.1895
lhand -12.2782 29.214
lfingers 7.12502
lthumb 13.7889 58.737
rfemur 7.03944 3.47891 24.2209
rtibia 34.5509
rfoot -0.867861 -0.786069
rtoes -14.3151
lfemur -24.0526 -0.105737 -20.4994
ltibia 22.0963
lfoot -2.70882 -4.29639
ltoes -3.3489
25
root 12.1565 17.5535 -22.4912 1.57772 -1.49366 -1.36903
lowerback 5.57734 0.901634 0.775011
upperback -0.672258 1.33235 2.01473
thorax -3.85367 0.667223 1.52782
lowerneck -15.4089 -4.18284 -9.27809
upperneck 21.5905 -4.93688 6.12851
head 9.7777 -2.37573 3.04518
rclavicle 5.2181e-015 6.36111e-015
rhumerus -28.5625 -14.3382 -78.7884
rradius 30.1916
rwrist 7.8188
rhand -13.0372 10.6361
rfingers 7.12502
rthumb 13.0574 -18.9352
lclavicle 5.2181e-015 6.36111e-015
lhumerus -36.8912 18.0868 81.537
lradius 21.5121
lwrist -13.064
lhand -12.2818 29.7604
lfingers 7.12502
lthumb 13.7854 59.2837
rfemur 5.79875 3.29631 23.8482
rtibia 37.0268
rfoot 1.72028 -0.106939
rtoes -14.271
lfemur -23.4434 0.398532 -20.8438
ltibia 22.2878
lfoot -2.67595 -4.72575
ltoes -2.16052
26
root 12.1885 17.5661 -22.3296 1.30448 -1.7124 -1.05058
lowerback 5.45277 0.954564 0.572472
upperback -0.486478 1.37839 1.89828
thorax -3.59381 0.692654 1.52013
lowerneck -15.2446 -4.21372 -9.41771
upperneck 21.4927 -4.98504 6.24813
head 9.72366 -2.39857 3.10482
rclavicle 4.96962e-016 -1.66979e-014
rhumerus -28.8863 -15.1962 -78.5621
rradius 30.1972
rwrist 8.7169
rhand -13.0803 11.2773
rfingers 7.12502
rthumb 13.0158 -18.2966
lclavicle 4.96962e-016 -1.66979e-014
lhumerus -36.753 18.1716 81.466
lradius 21.6971
lwrist -13.265
lhand -12.0467 30.8172
lfingers 7.12502
lthumb 14.012 60.3249
rfemur 4.66227 3.33841 23.168
rtibia 39.5299
rfoot 4.34547 0.855019
rtoes -12.3818
lfemur -22.6052 0.548559 -21.3128
ltibia 22.4421
lfoot -2.9784 -4.48409
ltoes -1.70013
27
root 12.2253 17.5763 -22.1616 1.03888 -1.75492 -0.363274
lowerback 5.45345 0.996349 0.140279
upperback -0.395856 1.39255 1.57768
thorax -3.50272 0.704489 1.43111
lowerneck -15.0827 -4.26948 -9.36978
upperneck 21.2931 -5.10741 6.34935
head 9.63478 -2.44202 3.11521
rclavicle -4.89507e-015 -8.34896e-015
rhumerus -29.3998 -15.8937 -78.4584
rradius 30.247
rwrist 9.09589
rhand -13.1203 11.3666
rfingers 7.12502
rthumb 12.9773 -18.2098
lclavicle -4.89507e-015 -8.34896e-015
lhumerus -36.6489 17.8076 81.4104
lradius 21.7855
lwrist -13.3917
lhand -12.1401 31.1753
lfingers 7.12502
lthumb 13.922 60.6892
rfemur 3.51883 3.095 22.0405
rtibia 42.0542
rfoot 6.9704 1.94448
rtoes -10.6912
lfemur -21.6861 0.446752 -22.1913
ltibia 22.4292
lfoot -3.72238 -4.88697
ltoes -1.86479
28
root 12.2485 17.5842 -22.0315 1.03772 -1.75349 -0.211697
lowerback 5.55825 1.00856 0.0555742
upperback -0.28279 1.39796 1.44776
thorax -3.44356 0.706994 1.34327
lowerneck -15.3083 -4.36115 -9.24713
upperneck 20.9819 -5.2405 6.38428
head 9.57661 -2.48414 3.08238
rclavicle -3.35449e-015 -2.18663e-014
rhumerus -29.5506 -16.5315 -78.4988
rradius 30.1682
rwrist 9.22249
rhand -13.033 10.2457
rfingers 7.12502
rthumb 13.0614 -19.3254
lclavicle -3.35449e-015 -2.18663e-014
lhumerus -36.0102 17.5649 81.4441
lradius 21.5161
lwrist -13.0451
lhand -12.2639 30.3318
lfingers 7.12502
lthumb 13.8027 59.8539
rfemur 1.82956 3.09569 21.736
rtibia 44.6559
rfoot 9.44293 2.44619
rtoes -8.3378
lfemur -21.1407 0.470409 -22.4578
ltibia 22.2622
lfoot -3.97891 -5.3155
ltoes -0.131542
29
root 12.2748 17.5985 -21.8942 0.842455 -1.73085 -0.00822369
lowerback 5.92061 0.948423 -0.160043
upperback -0.26389 1.30478 1.42738
thorax -3.62995 0.664681 1.44586
lowerneck -15.2787 -4.32216 -9.21217
upperneck 20.8362 -5.16669 6.28225
head 9.50983 -2.45798 3.04917
rclavicle -7.97623e-015 5.56597e-015
rhumerus -29.8091 -17.0214 -78.3221
rradius 29.9374
rwrist 9.16521
rhand -12.398 8.78861
rfingers 7.12502
rthumb 13.6734 -20.7422
lclavicle -7.97623e-015 5.56597e-015
lhumerus -35.7804 17.4847 81.4647
lradius 21.4255
lwrist -12.8059
lhand -12.1097 29.4038
lfingers 7.12502
lthumb 13.9513 58.9157
rfemur 0.40449 3.02404 21.3405
rtibia 47.2498
rfoot 11.9818 2.79955
rtoes -4.88593
lfemur -20.2298 0.72259 -22.8596
ltibia 21.9629
lfoot -4.01438 -5.48973
ltoes 2.52351
